<svg xmlns="http://www.w3.org/2000/svg" width="320" height="128" viewBox="0 0 320 128" role="img" aria-label="Tarjetas">
  <rect width="320" height="128" rx="18" fill="#f8fafc"/>
  <rect x="27" y="32" width="108" height="64" rx="10" fill="#111827"/>
  <rect x="27" y="46" width="108" height="10" fill="#334155"/>
  <rect x="43" y="68" width="28" height="18" rx="4" fill="#fbbf24"/>
  <rect x="78" y="73" width="39" height="5" rx="2.5" fill="#e5e7eb"/>
  <rect x="112" y="56" width="108" height="64" rx="10" fill="#2563eb"/>
  <rect x="128" y="91" width="64" height="6" rx="3" fill="#bfdbfe"/>
  <rect x="128" y="74" width="30" height="18" rx="4" fill="#fde68a"/>
  <circle cx="176" cy="62" r="15" fill="#f97316"/>
  <circle cx="194" cy="62" r="15" fill="#ef4444" fill-opacity=".82"/>
  <rect x="185" y="16" width="108" height="64" rx="10" fill="#059669"/>
  <rect x="202" y="56" width="55" height="6" rx="3" fill="#d1fae5"/>
  <rect x="202" y="36" width="30" height="18" rx="4" fill="#fef3c7"/>
  <path d="M246 32h25a5 5 0 0 1 5 5v9h-35v-9a5 5 0 0 1 5-5Z" fill="#34d399"/>
  <text x="160" y="116" text-anchor="middle" font-family="Arial, Helvetica, sans-serif" font-size="18" font-weight="800" fill="#0f172a">TARJETAS</text>
</svg>
