<svg xmlns="http://www.w3.org/2000/svg" width="320" height="128" viewBox="0 0 320 128" role="img" aria-label="PayPal">
  <rect width="320" height="128" rx="18" fill="#ffffff"/>
  <g transform="translate(46 29)">
    <path d="M20.4 67.7h22.1c22.7 0 39.5-12.4 44-34.8 3.1-15.8-7.3-26-27.9-26H22.1L9.5 67.7h10.9Z" fill="#003087"/>
    <path d="M48.7 21.6h18.5c15.2 0 24.2 7.4 21.1 22.1-3.4 16-16.8 24-35.2 24H35.2l5.1-24.2 8.4-21.9Z" fill="#009cde" opacity=".9"/>
    <path d="M7.1 82.8h22.1L35.2 54h18.9c21.4 0 37.5-11.5 41.8-32.4C99.2 5.5 88.5 0 69 0H21.9L7.1 82.8Z" fill="#012169"/>
    <path d="M40.3 43.5h17.8c13.8 0 23.5-6 26-18.4 2.1-10.4-5.2-15.9-19.3-15.9H47.5l-7.2 34.3Z" fill="#0070ba"/>
  </g>
  <text x="154" y="78" font-family="Arial, Helvetica, sans-serif" font-size="44" font-weight="800" fill="#003087">Pay</text>
  <text x="229" y="78" font-family="Arial, Helvetica, sans-serif" font-size="44" font-weight="800" fill="#009cde">Pal</text>
</svg>
